<?xml version="1.0" standalone="no"?>
<!DOCTYPE svg PUBLIC "-//W3C//DTD SVG 20010904//EN"
 "http://www.w3.org/TR/2001/REC-SVG-20010904/DTD/svg10.dtd">
<svg version="1.0" xmlns="http://www.w3.org/2000/svg"
 width="500.000000pt" height="500.000000pt" viewBox="0 0 500.000000 500.000000"
 preserveAspectRatio="xMidYMid meet">
<metadata>
Created by potrace 1.14, written by Peter Selinger 2001-2017
</metadata>
<g transform="translate(0.000000,500.000000) scale(0.100000,-0.100000)"
fill="#000000" stroke="none">
<path d="M365 4862 c-81 -76 -254 -235 -285 -262 l-25 -22 61 -56 c64 -60 238
-220 283 -261 14 -13 75 -69 135 -125 60 -56 118 -109 129 -119 11 -9 68 -61
125 -115 116 -108 112 -104 241 -222 51 -47 126 -116 167 -155 l73 -70 4 -785
3 -785 -41 -40 c-23 -22 -88 -83 -144 -135 -142 -130 -145 -133 -262 -241 -57
-53 -116 -107 -130 -120 -15 -13 -69 -63 -120 -110 -52 -48 -106 -97 -120
-110 -14 -13 -68 -63 -120 -111 -52 -48 -112 -103 -134 -123 l-40 -36 50 -47
c232 -218 316 -293 326 -290 4 2 54 47 111 100 57 54 114 106 125 116 12 10
68 61 125 114 56 53 117 108 133 123 17 15 74 69 128 119 55 50 103 93 108 94
5 2 9 -43 9 -100 1 -56 2 -302 3 -545 l2 -443 1223 0 1223 0 -2 540 c-1 298 0
543 2 545 2 2 34 -24 70 -58 36 -34 112 -105 169 -157 57 -52 115 -106 130
-120 24 -23 200 -183 241 -220 9 -8 39 -37 67 -64 45 -44 52 -47 70 -35 18 13
157 140 296 271 l61 57 -31 28 c-18 15 -78 71 -135 123 -56 52 -114 106 -128
119 -14 12 -69 63 -121 111 -52 48 -108 100 -125 115 -51 47 -226 208 -264
244 -20 18 -78 72 -130 120 -52 47 -114 105 -137 127 l-43 41 0 169 c0 93 -3
442 -5 776 l-5 607 47 45 c26 24 61 57 78 73 152 139 230 210 244 223 8 8 69
65 135 125 66 61 129 119 141 130 11 11 68 63 125 115 57 52 133 122 169 155
35 33 89 83 120 111 30 28 82 76 115 107 l60 56 -21 18 c-12 10 -68 61 -124
113 -57 52 -108 100 -115 105 -6 6 -34 31 -61 57 l-50 48 -34 -31 c-19 -18
-82 -75 -139 -128 -133 -123 -250 -231 -369 -340 -31 -28 -228 -211 -279 -258
-19 -18 -37 -33 -41 -33 -4 0 -8 62 -8 138 -1 75 -3 248 -5 385 l-2 247 -1214
0 c-963 0 -1213 -3 -1214 -12 0 -7 0 -176 0 -376 0 -339 -1 -363 -17 -350 -21
16 -18 13 -143 129 -57 53 -116 107 -131 120 -67 62 -214 197 -248 229 -21 19
-82 76 -136 125 -54 50 -105 97 -114 105 -58 53 -49 54 -115 -8z"/>
</g>
</svg>
